<?xml version="1.0" encoding="UTF-8" standalone="no"?>
<!-- Created with Inkscape (http://www.inkscape.org/) -->

<svg
   width="1000"
   height="1000"
   viewBox="0 0 264.58 264.58"
   version="1.1"
   id="svg834"
   sodipodi:docname="icon_dark.svg"
   inkscape:version="1.1 (c68e22c387, 2021-05-23)"
   inkscape:export-filename="C:\Users\lingl\Documents\twentyfour\assets\icons\icon.png"
   inkscape:export-xdpi="49.152"
   inkscape:export-ydpi="49.152"
   xmlns:inkscape="http://www.inkscape.org/namespaces/inkscape"
   xmlns:sodipodi="http://sodipodi.sourceforge.net/DTD/sodipodi-0.dtd"
   xmlns="http://www.w3.org/2000/svg"
   xmlns:svg="http://www.w3.org/2000/svg">
  <sodipodi:namedview
     id="namedview836"
     pagecolor="#fbfdfe"
     bordercolor="#eeeeee"
     borderopacity="1"
     inkscape:pageshadow="0"
     inkscape:pageopacity="0"
     inkscape:pagecheckerboard="0"
     inkscape:document-units="px"
     showgrid="false"
     units="mm"
     inkscape:zoom="0.50000001"
     inkscape:cx="352.99999"
     inkscape:cy="378.99999"
     inkscape:window-width="2560"
     inkscape:window-height="1411"
     inkscape:window-x="-9"
     inkscape:window-y="337"
     inkscape:window-maximized="1"
     inkscape:current-layer="layer1"
     showguides="true"
     inkscape:guide-bbox="true"
     inkscape:object-paths="true"
     inkscape:snap-intersection-paths="true"
     inkscape:snap-smooth-nodes="true"
     inkscape:snap-midpoints="true"
     scale-x="0.36458" />
  <defs
     id="defs831">
    <rect
       x="906.9881"
       y="829.94287"
       width="651.47101"
       height="512.0094"
       id="rect69004" />
  </defs>
  <g
     inkscape:label="Layer 1"
     inkscape:groupmode="layer"
     id="layer1">
    <text
       xml:space="preserve"
       style="font-size:10.5833px;line-height:1.25;font-family:Jost;-inkscape-font-specification:Jost;stroke-width:0.264583"
       x="235.37254"
       y="115.3143"
       id="text27065"><tspan
         sodipodi:role="line"
         id="tspan27063"
         style="stroke-width:0.264583"
         x="235.37254"
         y="115.3143" /></text>
    <text
       xml:space="preserve"
       style="font-size:10.5833px;line-height:1.25;font-family:Jost;-inkscape-font-specification:Jost;stroke-width:0.264583"
       x="163.11865"
       y="149.25174"
       id="text29571"><tspan
         sodipodi:role="line"
         id="tspan29569"
         style="stroke-width:0.264583"
         x="163.11865"
         y="149.25174" /></text>
    <text
       xml:space="preserve"
       transform="scale(0.26458333)"
       id="text69002"
       style="font-size:40px;line-height:1.25;font-family:Jost;-inkscape-font-specification:Jost;white-space:pre;shape-inside:url(#rect69004)" />
    <path
       style="fill:#44d8f1;fill-opacity:0.248971;stroke:none;stroke-width:0.641289px;stroke-linecap:butt;stroke-linejoin:miter;stroke-opacity:1"
       d="M 99.304807,83.640059 H 165.2752 L 238.4109,257.15215 H 26.169109 Z"
       id="path14410"
       sodipodi:nodetypes="ccccc" />
    <g
       aria-label="24"
       id="text3988"
       style="font-size:96.1933px;line-height:1.25;font-family:Jost;-inkscape-font-specification:Jost;letter-spacing:0px;word-spacing:0px;stroke-width:0.641289">
      <path
         d="m 79.287552,227.12373 h 47.519488 v -7.69546 H 96.121379 l 21.451101,-21.83588 q 3.94393,-4.04012 6.44496,-9.13836 2.50102,-5.09825 2.50102,-10.29269 0,-3.07818 -1.25051,-6.44495 -1.25051,-3.36676 -3.84773,-6.25256 -2.59722,-2.98199 -6.63734,-4.80967 -4.04012,-1.92386 -9.61933,-1.92386 -6.925919,0 -11.92797,3.07818 -4.905858,2.982 -7.503077,8.46501 -2.597219,5.38683 -2.597219,12.60133 h 8.17643 q 0,-5.09825 1.635286,-8.75359 1.635286,-3.75154 4.713472,-5.67541 3.174378,-2.02006 7.503078,-2.02006 3.07818,0 5.48302,1.05813 2.40483,1.05812 4.04012,2.7896 1.73147,1.73148 2.59721,3.84774 0.86574,2.11625 0.86574,4.32869 0,2.69342 -0.86574,5.19444 -0.76954,2.40484 -2.40483,4.80967 -1.53909,2.30864 -3.75154,4.71347 z"
         style="fill:#006877"
         id="path956" />
      <path
         d="m 134.02138,213.65667 h 51.27103 v -7.2145 h -13.75565 -1.63528 -22.41304 l 19.04627,-28.47321 v 31.16663 1.05812 16.93002 h 8.17643 v -67.33531 h -3.36676 z"
         style="fill:#006877"
         id="path958" />
    </g>
    <path
       style="fill:none;stroke:#3f484a;stroke-width:12.2099;stroke-linecap:round;stroke-linejoin:round;stroke-miterlimit:4;stroke-dasharray:none;stroke-opacity:1"
       d="m 132.29,7.4278636 h 57.02706 L 165.2752,38.945213 V 83.640055 L 238.4109,257.15215 H 132.29"
       id="path1957"
       sodipodi:nodetypes="cccccc" />
    <path
       style="fill:none;stroke:#3f484a;stroke-width:12.2099;stroke-linecap:round;stroke-linejoin:round;stroke-miterlimit:4;stroke-dasharray:none;stroke-opacity:1"
       d="M 132.29,7.4278636 H 75.262947 L 99.304807,38.945213 V 83.640055 L 26.169109,257.15215 H 132.29"
       id="path14314"
       sodipodi:nodetypes="cccccc" />
  </g>
</svg>
